<svg width="193" height="55" viewBox="0 0 193 55" fill="none" xmlns="http://www.w3.org/2000/svg">
<g clip-path="url(#clip0_2_4)">
<path d="M10.2256 0.339796C6.28757 1.98829 1.95901 6.63956 0.591803 12.4824C-1.13992 19.8829 6.06516 23.0134 6.6566 21.9883C7.35208 20.7825 5.36554 20.3749 4.95654 16.5347C4.42806 11.5749 6.73538 6.03305 9.63943 3.60137C10.1785 3.14932 10.1532 3.77843 10.1532 4.94134C10.1532 7.02117 10.0382 25.6925 10.0382 29.5892C10.0382 34.8617 9.82037 36.5268 9.42871 38.1723C9.03254 39.8392 8.39473 40.966 8.87761 41.3999C9.41741 41.8851 11.7221 40.7305 13.0561 38.8699C14.6559 36.6383 15.2161 33.9576 15.3167 31.0475C15.4381 27.5388 15.4328 21.971 15.4381 18.7953C15.4426 15.8829 15.4871 7.35456 15.3868 2.2275C15.3623 0.969282 11.8725 -0.349964 10.2256 0.339796Z" fill="#EBEAEA" fill-opacity="0.67"/>
<path d="M150.054 25.0156C149.927 27.7569 149.319 29.8993 148.566 31.4107C147.107 34.3366 144.08 35.2448 142.795 31.0392C142.094 28.7465 142.062 24.9176 142.565 21.7182C143.077 18.4593 144.509 15.9978 146.879 16.2197C149.217 16.4393 150.311 19.4497 150.054 25.016V25.0156ZM110.643 42.0226C110.612 46.5771 109.894 50.5702 108.356 51.7305C106.175 53.3752 103.242 52.1411 103.849 48.8178C104.387 45.8768 106.928 42.8733 110.65 39.2033C110.65 39.2033 110.657 40.0404 110.643 42.0226ZM110.048 24.9888C109.914 27.4857 109.267 29.9935 108.56 31.4107C107.101 34.3366 104.052 35.2512 102.789 31.0392C101.925 28.1611 102.132 24.437 102.559 22.09C103.114 19.0451 104.459 16.2201 106.873 16.2201C109.221 16.2201 110.379 18.7942 110.048 24.9888ZM87.2175 24.9512C87.0743 27.5949 86.5582 29.8051 85.7301 31.4107C84.2313 34.3166 81.2662 35.238 79.9589 31.0392C79.0162 28.0116 79.337 23.8836 79.729 21.6534C80.311 18.344 81.7683 15.9978 84.0432 16.2201C86.3799 16.4484 87.5157 19.4497 87.2175 24.9512ZM191.842 28.0395C191.271 28.0395 191.01 28.6279 190.794 29.6179C190.047 33.0625 189.26 33.8397 188.246 33.8397C187.114 33.8397 186.096 32.1347 185.834 28.7209C185.628 26.0365 185.661 21.0948 185.924 16.179C185.978 15.1691 185.699 14.1697 182.989 13.1857C181.822 12.7623 180.127 12.1388 179.282 14.1753C176.897 19.9292 175.964 24.4972 175.744 26.3522C175.733 26.4482 175.615 26.4682 175.595 26.2437C175.454 24.7575 175.142 22.0565 175.103 16.3825C175.095 15.2753 174.861 14.3331 173.638 13.5616C172.844 13.0606 170.435 12.1753 169.568 13.229C168.816 14.0902 167.945 16.4085 167.041 19.157C166.306 21.3909 165.794 22.9015 165.794 22.9015C165.794 22.9015 165.804 16.8748 165.813 14.5886C165.816 13.7263 165.225 13.4388 165.046 13.3868C164.243 13.154 162.66 12.7649 161.988 12.7649C161.159 12.7649 160.956 13.2275 160.956 13.9026C160.956 13.9911 160.825 21.8373 160.825 27.3237C160.825 27.5622 160.825 27.8221 160.826 28.0986C160.368 30.6203 158.881 34.0431 157.264 34.0431C155.644 34.0431 154.881 32.6124 154.881 26.0715C154.881 22.2558 154.995 20.5964 155.051 17.8366C155.084 16.2468 155.148 15.0263 155.144 14.7494C155.132 13.8999 153.662 13.4716 152.978 13.3134C152.291 13.154 151.694 13.0919 151.228 13.1186C150.568 13.1563 150.1 13.5884 150.1 14.1836C150.1 14.503 150.104 15.1096 150.104 15.1096C149.254 13.7745 147.887 12.8455 146.977 12.5762C144.527 11.8491 141.971 12.4933 140.042 15.1902C138.51 17.3325 137.586 19.7597 137.222 23.2462C136.956 25.7954 137.043 28.38 137.516 30.5661C136.944 33.0328 135.885 34.0431 134.724 34.0431C133.039 34.0431 131.818 31.2954 131.96 26.542C132.053 23.4157 132.679 21.2217 133.363 18.0475C133.655 16.6944 133.418 15.9862 132.824 15.3073C132.278 14.6846 131.116 14.3663 129.446 14.7573C128.256 15.0365 126.555 15.3367 124.999 15.5673C124.999 15.5673 125.093 15.1924 125.17 14.5324C125.575 11.0704 121.81 11.3511 120.609 12.4567C119.892 13.1171 119.404 13.8958 119.219 15.2956C118.925 17.5175 120.738 18.5655 120.738 18.5655C120.144 21.2869 118.685 24.8415 117.18 27.4118C116.373 28.7887 115.757 29.8092 114.96 30.8938C114.934 26.5413 114.963 22.1887 115.045 17.837C115.078 16.2472 115.142 15.0591 115.138 14.7818C115.129 14.161 114.766 13.9259 114.011 13.6291C113.343 13.3661 112.554 13.1846 111.735 13.1205C110.701 13.0406 110.079 13.588 110.095 14.236C110.098 14.3584 110.098 15.1096 110.098 15.1096C109.248 13.7745 107.881 12.8455 106.971 12.5762C104.521 11.8491 101.965 12.4933 100.036 15.1902C98.5039 17.3325 97.5004 20.3395 97.2158 23.2198C96.9512 25.9039 96.9998 28.1849 97.361 30.1068C96.9716 32.0311 95.8513 34.0435 94.5851 34.0435C92.9657 34.0435 92.0444 32.6124 92.0444 26.0715C92.0444 22.2558 92.159 20.5964 92.2156 17.8366C92.2484 16.2472 92.3113 15.0263 92.3079 14.7494C92.2958 13.8999 90.8261 13.472 90.1419 13.3134C89.4265 13.1476 88.8087 13.0874 88.3341 13.1224C87.7083 13.1687 87.268 13.7289 87.268 14.1467V15.1096C86.418 13.7745 85.0508 12.8455 84.1412 12.5762C81.691 11.8491 79.1488 12.5038 77.206 15.1902C75.9395 16.9415 74.9138 18.8831 74.3861 23.1814C74.2334 24.4234 74.1659 25.5871 74.1749 26.6739C73.6698 29.7614 71.4383 33.3198 69.6134 33.3198C68.5455 33.3198 67.5281 31.2494 67.5281 26.8377C67.5281 20.961 67.8923 12.5935 67.9541 11.7873C67.9541 11.7873 70.2599 11.7482 70.7062 11.7429C71.8567 11.7301 72.8982 11.7576 74.4305 11.6788C75.1988 11.64 75.9391 8.88363 75.146 8.54271C74.7864 8.38825 72.2461 8.25339 71.2389 8.23192C70.3922 8.21308 68.0348 8.03829 68.0348 8.03829C68.0348 8.03829 68.2462 2.48442 68.2956 1.89788C68.3371 1.40853 67.7038 1.15688 67.3412 1.00431C66.4583 0.63137 65.6686 0.452431 64.7327 0.259554C63.4389 -0.00715783 62.8524 0.253904 62.7378 1.34449C62.5652 3.00014 62.4758 7.84955 62.4758 7.84955C61.5267 7.84955 58.2841 7.66421 57.3349 7.66421C56.4529 7.66421 55.5007 11.4554 56.7205 11.5022C58.1235 11.5564 60.5688 11.6039 62.1897 11.6521C62.1897 11.6521 62.1174 20.1575 62.1174 22.7839C62.1174 23.0627 62.1189 23.3321 62.1204 23.5931C61.2281 28.2399 58.0858 30.7503 58.0858 30.7503C58.7606 27.6759 57.3821 25.3671 54.8991 23.4127C53.9842 22.6928 52.1782 21.3295 50.1578 19.8354C50.1578 19.8354 51.3278 18.6827 52.366 16.3636C53.101 14.7204 53.133 12.841 51.3278 12.4262C48.3454 11.7406 45.8865 13.9297 45.153 16.2668C44.5845 18.0773 44.8876 19.4203 46.0011 20.8156C46.0821 20.9177 46.1707 21.0221 46.2612 21.1268C45.5883 22.4234 44.6633 24.1695 43.88 25.5234C41.7057 29.283 40.0633 32.256 38.822 32.256C37.8299 32.256 37.8431 29.237 37.8431 26.4105C37.8431 23.974 38.0233 20.3104 38.1673 16.5181C38.2148 15.2636 37.5867 14.549 36.535 13.9018C35.8957 13.5085 34.5315 12.7355 33.7414 12.7355C32.5586 12.7355 29.1464 12.8964 25.9227 22.2162C25.5163 23.3908 24.7179 25.5313 24.7179 25.5313L24.7869 14.3237C24.7869 14.0608 24.6467 13.8069 24.3259 13.6332C23.7827 13.3383 22.3318 12.7355 21.0415 12.7355C20.4271 12.7355 20.1199 13.0211 20.1199 13.5906L20.0075 31.1251C20.0075 32.4575 20.0422 34.0118 20.1742 34.6914C20.3053 35.3718 20.5183 35.9255 20.7814 36.2548C21.0449 36.5837 21.3491 36.8349 21.8508 36.9382C22.3179 37.0342 24.8751 37.3623 25.0082 36.3859C25.1673 35.2151 25.1737 33.9493 26.5164 29.2276C28.607 21.8764 31.3323 18.2901 32.614 17.0161C32.8383 16.7938 33.0938 16.7803 33.0814 17.1446C33.0271 18.7561 32.8345 22.7839 32.7052 26.2045C32.358 35.3605 34.0245 37.0576 36.4065 37.0576C38.2287 37.0576 40.7973 35.2482 43.5505 30.6682C45.0846 28.1158 46.6117 25.5591 48.1316 22.9983C48.9658 23.7702 49.9026 24.6008 50.8382 25.4884C53.0132 27.5512 53.7271 29.5116 53.2533 31.3711C52.8914 32.7924 51.5265 34.2575 49.0978 32.8339C48.3898 32.4184 48.0875 32.097 47.3758 31.6288C46.9936 31.3775 46.4097 31.3022 46.0595 31.5659C45.1503 32.2507 44.6301 33.1224 44.3331 34.2013C44.0443 35.2512 45.0964 35.8061 46.1873 36.2917C47.1263 36.7095 49.1449 37.0881 50.4318 37.131C55.4472 37.2987 59.4651 34.711 62.2621 28.0361C62.7627 33.8009 64.8932 37.0628 68.5953 37.0628C71.0704 37.0628 73.5519 33.8657 74.6371 30.7205C74.9485 32.0025 75.4099 33.1175 76.0054 34.0604C78.8578 38.5772 84.3915 37.6053 87.1712 33.7696C88.0306 32.5845 88.1614 32.1588 88.1614 32.1588C88.567 35.7801 91.4854 37.0455 93.1561 37.0455C95.0276 37.0455 96.9595 36.1614 98.3139 33.1145C98.4726 33.4453 98.646 33.7613 98.8352 34.0604C101.688 38.5772 107.222 37.6053 110.001 33.7696C110.133 33.5896 110.246 33.4268 110.345 33.2799L110.427 35.6588L107.868 38.0046C103.578 41.9337 100.32 44.9135 100.08 48.3842C99.7746 52.8094 103.364 54.4541 106.083 54.6696C108.966 54.8983 111.439 53.3055 112.957 51.0765C114.293 49.1142 115.167 44.8913 115.103 40.7207C115.077 39.0504 115.035 36.9268 115.002 34.6504C116.508 32.9028 118.205 30.6938 119.767 28.1088C121.469 25.2913 123.293 21.5076 124.228 18.5629C124.228 18.5629 125.813 18.5768 127.504 18.4661C128.045 18.4307 128.201 18.5414 128.101 18.9373C127.98 19.4165 125.963 27.1892 127.804 32.3671C129.063 35.912 131.903 37.0519 133.587 37.0519C135.558 37.0519 137.443 35.5647 138.453 33.3564C138.575 33.6024 138.702 33.8404 138.841 34.0608C141.694 38.5776 147.208 37.5993 150.007 33.7696C150.639 32.9054 150.998 32.1588 150.998 32.1588C151.598 35.9071 154.515 37.0647 156.186 37.0647C157.926 37.0647 159.577 36.3516 160.917 33.1831C160.974 34.5784 161.062 35.7191 161.201 36.0785C161.285 36.2989 161.78 36.5746 162.14 36.708C163.732 37.2979 165.355 37.0191 165.956 36.8978C166.372 36.8135 166.697 36.4797 166.741 35.6185C166.858 33.3564 166.786 29.5557 167.472 26.7308C168.624 21.9906 169.699 20.1518 170.208 19.2417C170.494 18.7313 170.815 18.6473 170.827 19.1871C170.851 20.2796 170.905 23.4865 171.352 27.7961C171.68 30.965 172.117 32.8384 172.453 33.4317C173.414 35.1269 174.599 35.2072 175.565 35.2072C176.18 35.2072 177.464 35.0376 177.349 33.9587C177.293 33.4328 177.391 30.1826 178.527 25.5125C179.268 22.4626 180.505 19.7073 180.951 18.6996C181.115 18.3282 181.192 18.6209 181.189 18.6782C181.095 20.7783 180.884 27.648 181.74 31.4054C182.901 36.4951 186.259 37.0647 187.429 37.0647C189.926 37.0647 191.969 35.1661 192.657 30.1701C192.823 28.9677 192.577 28.0395 191.842 28.0395Z" fill="#EBEAEA" fill-opacity="0.67"/>
</g>
<defs>
<clipPath id="clip0_2_4">
<rect width="193" height="55" rx="10" fill="white"/>
</clipPath>
</defs>
</svg>
